{
	"asset":{
		"generator":"Khronos glTF Blender I/O v3.6.27",
		"version":"2.0"
	},
	"scene":0,
	"scenes":[
		{
			"name":"Scene",
			"nodes":[
				0,
				1,
				2,
				3,
				4
			]
		}
	],
	"nodes":[
		{
			"mesh":0,
			"name":"Truck cab",
			"translation":[
				0,
				2.9114601612091064,
				0
			]
		},
		{
			"mesh":1,
			"name":"FR wheel",
			"translation":[
				-2.616956949234009,
				0,
				7.042692184448242
			]
		},
		{
			"mesh":2,
			"name":"FL wheel",
			"translation":[
				2.7090837955474854,
				0,
				7.042692184448242
			]
		},
		{
			"mesh":3,
			"name":"RL wheel",
			"translation":[
				2.560518980026245,
				0,
				-4.203527450561523
			]
		},
		{
			"mesh":4,
			"name":"RR wheel",
			"translation":[
				-2.678414821624756,
				0,
				-4.203527450561523
			]
		}
	],
	"materials":[
		{
			"doubleSided":true,
			"name":"Material",
			"pbrMetallicRoughness":{
				"baseColorFactor":[
					0.11639836430549622,
					0.14392413198947906,
					1,
					1
				],
				"metallicFactor":0,
				"roughnessFactor":0.5
			}
		},
		{
			"doubleSided":true,
			"name":"wheel color",
			"pbrMetallicRoughness":{
				"baseColorFactor":[
					0.07297142595052719,
					0.07297142595052719,
					0.07297142595052719,
					1
				],
				"metallicFactor":0,
				"roughnessFactor":0.5
			}
		}
	],
	"meshes":[
		{
			"name":"Cube",
			"primitives":[
				{
					"attributes":{
						"POSITION":0,
						"NORMAL":1,
						"TEXCOORD_0":2
					},
					"indices":3,
					"material":0
				}
			]
		},
		{
			"name":"Cylinder.001",
			"primitives":[
				{
					"attributes":{
						"POSITION":4,
						"NORMAL":5,
						"TEXCOORD_0":6
					},
					"indices":7,
					"material":1
				}
			]
		},
		{
			"name":"Cylinder.008",
			"primitives":[
				{
					"attributes":{
						"POSITION":8,
						"NORMAL":9,
						"TEXCOORD_0":10
					},
					"indices":7,
					"material":1
				}
			]
		},
		{
			"name":"Cylinder.009",
			"primitives":[
				{
					"attributes":{
						"POSITION":11,
						"NORMAL":12,
						"TEXCOORD_0":13
					},
					"indices":7,
					"material":1
				}
			]
		},
		{
			"name":"Cylinder.010",
			"primitives":[
				{
					"attributes":{
						"POSITION":14,
						"NORMAL":15,
						"TEXCOORD_0":16
					},
					"indices":7,
					"material":1
				}
			]
		}
	],
	"accessors":[
		{
			"bufferView":0,
			"componentType":5126,
			"count":1354,
			"max":[
				2.8669180870056152,
				4.060664653778076,
				9.834733963012695
			],
			"min":[
				-2.8669180870056152,
				-2.8669180870056152,
				-7.759759902954102
			],
			"type":"VEC3"
		},
		{
			"bufferView":1,
			"componentType":5126,
			"count":1354,
			"type":"VEC3"
		},
		{
			"bufferView":2,
			"componentType":5126,
			"count":1354,
			"type":"VEC2"
		},
		{
			"bufferView":3,
			"componentType":5123,
			"count":2784,
			"type":"SCALAR"
		},
		{
			"bufferView":4,
			"componentType":5126,
			"count":1088,
			"max":[
				0.9433791637420654,
				2.0050220489501953,
				2.0050225257873535
			],
			"min":[
				-0.9433833360671997,
				-2.0050220489501953,
				-2.005021572113037
			],
			"type":"VEC3"
		},
		{
			"bufferView":5,
			"componentType":5126,
			"count":1088,
			"type":"VEC3"
		},
		{
			"bufferView":6,
			"componentType":5126,
			"count":1088,
			"type":"VEC2"
		},
		{
			"bufferView":7,
			"componentType":5123,
			"count":1920,
			"type":"SCALAR"
		},
		{
			"bufferView":8,
			"componentType":5126,
			"count":1088,
			"max":[
				0.9273306727409363,
				1.970914363861084,
				1.9709151983261108
			],
			"min":[
				-0.9273360371589661,
				-1.970914363861084,
				-1.9709140062332153
			],
			"type":"VEC3"
		},
		{
			"bufferView":9,
			"componentType":5126,
			"count":1088,
			"type":"VEC3"
		},
		{
			"bufferView":10,
			"componentType":5126,
			"count":1088,
			"type":"VEC2"
		},
		{
			"bufferView":11,
			"componentType":5126,
			"count":1088,
			"max":[
				0.9501395225524902,
				2.0193912982940674,
				2.0193917751312256
			],
			"min":[
				-0.9501447081565857,
				-2.0193912982940674,
				-2.019390821456909
			],
			"type":"VEC3"
		},
		{
			"bufferView":12,
			"componentType":5126,
			"count":1088,
			"type":"VEC3"
		},
		{
			"bufferView":13,
			"componentType":5126,
			"count":1088,
			"type":"VEC2"
		},
		{
			"bufferView":14,
			"componentType":5126,
			"count":1088,
			"max":[
				0.9363329410552979,
				1.9900462627410889,
				1.990046739578247
			],
			"min":[
				-0.9363371729850769,
				-1.9900462627410889,
				-1.9900460243225098
			],
			"type":"VEC3"
		},
		{
			"bufferView":15,
			"componentType":5126,
			"count":1088,
			"type":"VEC3"
		},
		{
			"bufferView":16,
			"componentType":5126,
			"count":1088,
			"type":"VEC2"
		}
	],
	"bufferViews":[
		{
			"buffer":0,
			"byteLength":16248,
			"byteOffset":0,
			"target":34962
		},
		{
			"buffer":0,
			"byteLength":16248,
			"byteOffset":16248,
			"target":34962
		},
		{
			"buffer":0,
			"byteLength":10832,
			"byteOffset":32496,
			"target":34962
		},
		{
			"buffer":0,
			"byteLength":5568,
			"byteOffset":43328,
			"target":34963
		},
		{
			"buffer":0,
			"byteLength":13056,
			"byteOffset":48896,
			"target":34962
		},
		{
			"buffer":0,
			"byteLength":13056,
			"byteOffset":61952,
			"target":34962
		},
		{
			"buffer":0,
			"byteLength":8704,
			"byteOffset":75008,
			"target":34962
		},
		{
			"buffer":0,
			"byteLength":3840,
			"byteOffset":83712,
			"target":34963
		},
		{
			"buffer":0,
			"byteLength":13056,
			"byteOffset":87552,
			"target":34962
		},
		{
			"buffer":0,
			"byteLength":13056,
			"byteOffset":100608,
			"target":34962
		},
		{
			"buffer":0,
			"byteLength":8704,
			"byteOffset":113664,
			"target":34962
		},
		{
			"buffer":0,
			"byteLength":13056,
			"byteOffset":122368,
			"target":34962
		},
		{
			"buffer":0,
			"byteLength":13056,
			"byteOffset":135424,
			"target":34962
		},
		{
			"buffer":0,
			"byteLength":8704,
			"byteOffset":148480,
			"target":34962
		},
		{
			"buffer":0,
			"byteLength":13056,
			"byteOffset":157184,
			"target":34962
		},
		{
			"buffer":0,
			"byteLength":13056,
			"byteOffset":170240,
			"target":34962
		},
		{
			"buffer":0,
			"byteLength":8704,
			"byteOffset":183296,
			"target":34962
		}
	],
	"buffers":[
		{
			"byteLength":192000,
			"uri":"data:application/octet-stream;base64,"
		}
	]
}
